:version 1.10
:name ASF
:units
  mass 1
  length 1
  angle deg
:documentation
  ASF file generated by Kaydara
:root
  axis xyz
  order  tx ty tz rx ry rz
  position 0 0 0
  orientation 0 0 0
:bonedata
  begin
    id 1
    name lfemurDummy
    direction 0.61522 -0.761478 0.204097
    length 5.68318
    axis 0 -0 0 xyz
  end
  begin
    id 2
    name lfemur
    direction 0.34202 -0.939693 -5.84747e-008
    length 16.9147
    axis 0 -0 20 xyz
    dof rx ry rz
    limits( -inf , inf )
( -inf , inf )
( -inf , inf )

  end
  begin
    id 3
    name ltibia
    direction 0.34202 -0.939693 1.20839e-009
    length 18.0532
    axis 0 -0 20 xyz
    dof rz ry rx
    limits( -inf , inf )
( -inf , inf )
( -inf , inf )

  end
  begin
    id 4
    name lfoot
    direction 0.0841971 -0.23133 0.969225
    length 5.23822
    axis -90 7.62852e-016 20 xyz
    dof ry rx rz
    limits( -inf , inf )
( -inf , inf )
( -inf , inf )

  end
  begin
    id 5
    name ltoes
    direction 0 0 0
    length 0
    axis 0 0 0 xyz
    dof rz ry rx
    limits( -inf , inf )
( -inf , inf )
( -inf , inf )

  end
  begin
    id 6
    name rfemurDummy
    direction -0.625247 -0.75382 0.202044
    length 5.74091
    axis 0 -0 0 xyz
  end
  begin
    id 7
    name rfemur
    direction -0.34202 -0.939693 -1.47013e-008
    length 16.4922
    axis 0 -0 -20 xyz
    dof rx ry rz
    limits( -inf , inf )
( -inf , inf )
( -inf , inf )

  end
  begin
    id 8
    name rtibia
    direction -0.34202 -0.939693 -7.74345e-010
    length 18.2421
    axis 0 -0 -20 xyz
    dof rz ry rx
    limits( -inf , inf )
( -inf , inf )
( -inf , inf )

  end
  begin
    id 9
    name rfoot
    direction -0.124331 -0.341598 0.931586
    length 5.45787
    axis -90 -7.62852e-016 -20 xyz
    dof ry rx rz
    limits( -inf , inf )
( -inf , inf )
( -inf , inf )

  end
  begin
    id 10
    name rtoes
    direction 0 0 0
    length 0
    axis 0 0 0 xyz
    dof rz ry rx
    limits( -inf , inf )
( -inf , inf )
( -inf , inf )

  end
  begin
    id 11
    name lowerbackDummy
    direction 0 0 0
    length 0
    axis 0 -0 0 xyz
  end
  begin
    id 12
    name lowerback
    direction -0.0218484 0.994884 -0.0986304
    length 4.45607
    axis 0 -0 0 xyz
    dof rx ry rz
    limits( -inf , inf )
( -inf , inf )
( -inf , inf )

  end
  begin
    id 13
    name upperback
    direction -0.00973057 0.999717 -0.0217111
    length 4.47449
    axis 0 -0 0 xyz
    dof rx ry rz
    limits( -inf , inf )
( -inf , inf )
( -inf , inf )

  end
  begin
    id 14
    name thorax
    direction -0.000928171 0.999699 0.0245198
    length 4.50973
    axis 0 -0 0 xyz
    dof rx ry rz
    limits( -inf , inf )
( -inf , inf )
( -inf , inf )

  end
  begin
    id 15
    name rclavicle
    direction -0.9009 0.425937 -0.0834055
    length 7.28587
    axis 0 -0 0 xyz
    dof rx ry rz
    limits( -inf , inf )
( -inf , inf )
( -inf , inf )

  end
  begin
    id 16
    name rhumerus
    direction -1 -2.23604e-007 -1.42637e-007
    length 13.5704
    axis 180 30 90 xyz
    dof rx ry rz
    limits( -inf , inf )
( -inf , inf )
( -inf , inf )

  end
  begin
    id 17
    name rradius
    direction -1 5.68281e-008 -4.4952e-007
    length 8.06782
    axis 180 30 90 xyz
    dof rz ry rx
    limits( -inf , inf )
( -inf , inf )
( -inf , inf )

  end
  begin
    id 18
    name rwrist
    direction -1 1.51393e-007 1.38143e-007
    length 4.03391
    axis -90 -90 0 xyz
    dof rz rx ry
    limits( -inf , inf )
( -inf , inf )
( -inf , inf )

  end
  begin
    id 19
    name rthumb
    direction 0 0 0
    length 0
    axis 0 0 0 xyz
    dof ry rx rz
    limits( -inf , inf )
( -inf , inf )
( -inf , inf )

  end
  begin
    id 20
    name rhand
    direction -1 -3.34077e-007 -5.59631e-007
    length 1.29744
    axis -90 -90 0 xyz
    dof ry rx rz
    limits( -inf , inf )
( -inf , inf )
( -inf , inf )

  end
  begin
    id 21
    name rfingers
    direction 0 0 0
    length 0
    axis 0 0 0 xyz
    dof rz ry rx
    limits( -inf , inf )
( -inf , inf )
( -inf , inf )

  end
  begin
    id 22
    name lclavicle
    direction 0.940017 0.332249 -0.0773232
    length 8.29589
    axis 0 -0 0 xyz
    dof rx ry rz
    limits( -inf , inf )
( -inf , inf )
( -inf , inf )

  end
  begin
    id 23
    name lhumerus
    direction 1 7.41158e-008 -1.44768e-008
    length 12.0042
    axis 180 -30 -90 xyz
    dof rx ry rz
    limits( -inf , inf )
( -inf , inf )
( -inf , inf )

  end
  begin
    id 24
    name lradius
    direction 1 -1.32972e-007 3.10821e-007
    length 8.1902
    axis 180 -30 -90 xyz
    dof rz ry rx
    limits( -inf , inf )
( -inf , inf )
( -inf , inf )

  end
  begin
    id 25
    name lwrist
    direction 1 3.08957e-007 4.01394e-007
    length 4.09509
    axis -90 90 0 xyz
    dof rz rx ry
    limits( -inf , inf )
( -inf , inf )
( -inf , inf )

  end
  begin
    id 26
    name lthumb
    direction 0 0 0
    length 0
    axis 0 0 0 xyz
    dof ry rx rz
    limits( -inf , inf )
( -inf , inf )
( -inf , inf )

  end
  begin
    id 27
    name lhand
    direction 1 -1.64125e-007 -6.99514e-007
    length 1.37229
    axis -90 90 0 xyz
    dof ry rx rz
    limits( -inf , inf )
( -inf , inf )
( -inf , inf )

  end
  begin
    id 28
    name lfingers
    direction 0 0 0
    length 0
    axis 0 0 0 xyz
    dof rz ry rx
    limits( -inf , inf )
( -inf , inf )
( -inf , inf )

  end
  begin
    id 29
    name lowerneck
    direction -0.030798 0.998024 0.0547665
    length 3.93918
    axis 0 -0 0 xyz
    dof rx ry rz
    limits( -inf , inf )
( -inf , inf )
( -inf , inf )

  end
  begin
    id 30
    name upperneck
    direction 0.0531588 0.996611 -0.0627736
    length 3.95491
    axis 0 -0 0 xyz
    dof rx ry rz
    limits( -inf , inf )
( -inf , inf )
( -inf , inf )

  end
  begin
    id 31
    name head
    direction 0 0 0
    length 0
    axis 0 0 0 xyz
    dof rx ry rz
    limits( -inf , inf )
( -inf , inf )
( -inf , inf )

  end
:hierarchy
  begin
    root lfemurDummy rfemurDummy lowerbackDummy
    lfemurDummy lfemur
    lfemur ltibia
    ltibia lfoot
    lfoot ltoes
    rfemurDummy rfemur
    rfemur rtibia
    rtibia rfoot
    rfoot rtoes
    lowerbackDummy lowerback
    lowerback upperback
    upperback thorax
    thorax rclavicle lclavicle lowerneck
    rclavicle rhumerus
    rhumerus rradius
    rradius rwrist
    rwrist rthumb rhand
    rhand rfingers
    lclavicle lhumerus
    lhumerus lradius
    lradius lwrist
    lwrist lthumb lhand
    lhand lfingers
    lowerneck upperneck
    upperneck head
  end

:SAMPLES-PER-SECOND 30
:FULLY-SPECIFIED
:DEGREES
19
root  5.76335539 38.20622362 -1.569071154 -3.137023926 -33.19000244 4.17199707
lowerback  10.86590004 0.9507089853 -2.485310078
upperback  3.269959927 0.9537870288 -0.01478749979
thorax  -2.721179962 0.4603379965 1.260630012
lowerneck  -4.258240223 3.617680073 -5.669509888
upperneck  5.471419811 4.865839958 5.811800003
head  2.207010031 2.473579884 3.040940046
lclavicle  0 -9.442270133e-015 7.951389973e-016
lhumerus  11.62819958 -13.8732996 74.36859894
lradius  2.533476324e-031 -2.459744246e-031 135.845993
lwrist  -7.062250077e-031 -1.765562519e-031 8.259360313
lhand  -1.496451383e-031 -27.76390076 20.11240005
lfingers  90 7.125020027 -90
lthumb  89.89689403 5.08795885 91.16245106
rclavicle  0 -9.442270133e-015 7.951389973e-016
rhumerus  20.72710037 19.66679955 -76.834198
rradius  -2.55939298e-031 2.432766247e-031 136.4530029
rwrist  7.062250077e-031 -0 -9.710000038
rhand  -7.920061211e-032 -33.2840004 9.303460121
rfingers  -90 -7.125020027 -90
rthumb  -92.93752616 -24.25625642 -97.11982154
rfemur  -11.93550014 13.18710041 14.9005003
rtibia  -0 0 58.19530106
rfoot  -5.134379459e-032 -30.71969986 -5.56690979
rtoes  5.373923086 19.29304026 -105.8922705
lfemur  -22.87339973 6.314169884 -10.8380003
ltibia  -0 0 56.65950012
lfoot  4.669840528e-032 -19.05699921 2.901679993
ltoes  -4.250644065 -19.5611806 -102.515957
20
root  5.736333366 38.16910992 -1.673075533 -2.62701416 -33.44900513 3.664001465
lowerback  10.92140007 0.9959989786 -2.078999996
upperback  3.154649973 1.064329982 0.2195550054
thorax  -2.87364006 0.5173590183 1.258870006
lowerneck  -4.524819851 3.621829987 -5.433119774
upperneck  5.398610115 4.887949944 5.508369923
head  2.241039991 2.484499931 2.901949883
lclavicle  0 -9.442270133e-015 7.951389973e-016
lhumerus  10.44449997 -14.19460011 74.69280243
lradius  2.558967928e-031 -2.433213345e-031 136.4429932
lwrist  -7.062250077e-031 -3.531125038e-031 7.569019794
lhand  -1.496451383e-031 -27.76390076 20.11240005
lfingers  90 7.125020027 -90
lthumb  89.89689403 5.08795885 91.16245106
rclavicle  0 -9.442270133e-015 7.951389973e-016
rhumerus  20.32010078 19.56170082 -76.6989975
rradius  -2.575133711e-031 2.416098179e-031 136.8249969
rwrist  0 -0 -9.236519814
rhand  -7.920061211e-032 -33.2840004 9.303460121
rfingers  -90 -7.125020027 -90
rthumb  -92.93752616 -24.25625642 -97.11982154
rfemur  -12.38020039 12.47819996 15.58250046
rtibia  -0 0 58.24840164
rfoot  -5.155171585e-032 -31.10639954 -6.461009979
rtoes  5.373923086 19.29304026 -105.8922705
lfemur  -23.85050011 6.849880219 -10.37370014
ltibia  -0 0 57.63980103
lfoot  4.655614276e-032 -18.5435009 3.572870016
ltoes  -4.250644065 -19.5611806 -102.515957
21
root  5.708422248 38.17755632 -1.767553307 -2.065979004 -33.79699707 3.255004883
lowerback  10.39319992 0.9967190027 -1.572199941
upperback  3.329590082 1.130689979 0.2501929998
thorax  -2.396039963 0.5443890095 1.005800009
lowerneck  -4.782539845 3.690579891 -4.939139843
upperneck  4.98845005 4.984779835 5.212500095
head  2.162329912 2.539020061 2.711050034
lclavicle  0 -9.442270133e-015 7.951389973e-016
lhumerus  9.457530022 -14.58269978 74.8839035
lradius  2.582333328e-031 -2.408401673e-031 136.9960022
lwrist  -7.062250077e-031 -3.531125038e-031 7.033850193
lhand  -1.496451383e-031 -27.76390076 20.11240005
lfingers  90 7.125020027 -90
lthumb  89.89689403 5.08795885 91.16245106
rclavicle  0 -9.442270133e-015 7.951389973e-016
rhumerus  20.17029953 19.43639946 -76.80940247
rradius  -2.590598474e-031 2.39950903e-031 137.1929932
rwrist  7.062250077e-031 -0 -8.763850212
rhand  -7.920061211e-032 -33.2840004 9.303460121
rfingers  -90 -7.125020027 -90
rthumb  -92.93752616 -24.25625642 -97.11982154
rfemur  -13.02429962 11.94099998 16.12039948
rtibia  -0 0 58.32300186
rfoot  -0 -31.1928997 -6.657390118
rtoes  5.373923086 19.29304026 -105.8922705
lfemur  -24.90819931 7.332359791 -10.01179981
ltibia  -0 0 58.57619858
lfoot  4.634516424e-032 -17.74950027 4.205739975
ltoes  -4.250644065 -19.5611806 -102.515957
22
root  5.670844476 38.25977656 -1.855993271 -1.690979004 -34.15499878 3.12902832
lowerback  10.19569969 1.068580031 -1.586599946
upperback  3.302710056 1.232759953 0.3954960108
thorax  -2.321990013 0.5947160125 1.154600024
lowerneck  -4.934090137 3.783040047 -4.810709953
upperneck  4.823560238 5.11386013 5.14233017
head  2.132359982 2.606129885 2.667639971
lclavicle  0 -9.442270133e-015 7.951389973e-016
lhumerus  8.075360298 -14.90579987 75.38819885
lradius  2.608658653e-031 -2.379862195e-031 137.6260071
lwrist  -1.412450015e-030 -0 6.835559845
lhand  -1.496451383e-031 -27.76390076 20.11240005
lfingers  90 7.125020027 -90
lthumb  89.89689403 5.08795885 91.16245106
rclavicle  0 -9.442270133e-015 7.951389973e-016
rhumerus  19.52759933 19.45619965 -76.85489655
rradius  -2.608658653e-031 2.379862195e-031 137.6260071
rwrist  7.062250077e-031 -1.765562519e-031 -8.442350388
rhand  -7.920061211e-032 -33.2840004 9.303460121
rfingers  -90 -7.125020027 -90
rthumb  -92.93752616 -24.25625642 -97.11982154
rfemur  -13.67879963 11.53110027 16.38549995
rtibia  -0 0 58.39039993
rfoot  -1.030071188e-031 -31.01749992 -6.886519909
rtoes  5.373923086 19.29304026 -105.8922705
lfemur  -25.80249977 7.77203989 -9.919799805
ltibia  -0 0 59.28749847
lfoot  4.606822054e-032 -16.63979912 5.012829781
ltoes  -4.250644065 -19.5611806 -102.515957
